<?xml version="1.0" encoding="UTF-8"?>
<svg xmlns="http://www.w3.org/2000/svg" xmlns:xlink="http://www.w3.org/1999/xlink" width="500px" height="224px" viewBox="0 0 499 224" version="1.1">
<g id="surface1">
<path style=" stroke:none;fill-rule:nonzero;fill:rgb(0%,0%,0%);fill-opacity:1;" d="M 7.144531 0 C 119.9375 0 232.730469 0 348.941406 0 C 348.941406 0.195312 348.941406 0.394531 348.941406 0.597656 C 349.53125 0.597656 350.121094 0.597656 350.730469 0.597656 C 350.730469 0.792969 350.730469 0.988281 350.730469 1.191406 C 351.121094 1.191406 351.515625 1.191406 351.921875 1.191406 C 351.921875 1.386719 351.921875 1.585938 351.921875 1.789062 C 352.117188 1.789062 352.3125 1.789062 352.515625 1.789062 C 352.515625 1.984375 352.515625 2.179688 352.515625 2.382812 C 352.710938 2.382812 352.910156 2.382812 353.109375 2.382812 C 353.109375 2.578125 353.109375 2.777344 353.109375 2.980469 C 353.308594 2.980469 353.503906 2.980469 353.707031 2.980469 C 353.707031 3.175781 353.707031 3.371094 353.707031 3.574219 C 353.902344 3.574219 354.097656 3.574219 354.300781 3.574219 C 354.300781 3.769531 354.300781 3.96875 354.300781 4.171875 C 354.5 4.171875 354.695312 4.171875 354.898438 4.171875 C 354.898438 4.5625 354.898438 4.957031 354.898438 5.363281 C 355.09375 5.363281 355.289062 5.363281 355.492188 5.363281 C 355.492188 5.953125 355.492188 6.542969 355.492188 7.148438 C 355.6875 7.148438 355.886719 7.148438 356.089844 7.148438 C 356.089844 10.492188 356.089844 13.832031 356.089844 17.277344 C 356.285156 17.277344 356.480469 17.277344 356.683594 17.277344 C 356.683594 18.0625 356.683594 18.847656 356.683594 19.660156 C 356.878906 19.660156 357.078125 19.660156 357.277344 19.660156 C 357.277344 20.054688 357.277344 20.445312 357.277344 20.851562 C 357.476562 20.851562 357.671875 20.851562 357.875 20.851562 C 357.875 21.246094 357.875 21.636719 357.875 22.042969 C 358.070312 22.042969 358.269531 22.042969 358.46875 22.042969 C 358.46875 22.238281 358.46875 22.4375 358.46875 22.636719 C 358.667969 22.636719 358.863281 22.636719 359.066406 22.636719 C 359.066406 22.835938 359.066406 23.03125 359.066406 23.234375 C 359.261719 23.234375 359.457031 23.234375 359.660156 23.234375 C 359.660156 23.429688 359.660156 23.628906 359.660156 23.828125 C 359.859375 23.828125 360.054688 23.828125 360.257812 23.828125 C 360.257812 24.027344 360.257812 24.222656 360.257812 24.425781 C 360.453125 24.425781 360.648438 24.425781 360.851562 24.425781 C 360.851562 24.621094 360.851562 24.820312 360.851562 25.019531 C 361.046875 25.019531 361.246094 25.019531 361.449219 25.019531 C 361.449219 25.21875 361.449219 25.414062 361.449219 25.617188 C 361.644531 25.617188 361.839844 25.617188 362.042969 25.617188 C 362.042969 25.8125 362.042969 26.011719 362.042969 26.210938 C 362.4375 26.210938 362.828125 26.210938 363.234375 26.210938 C 363.234375 26.410156 363.234375 26.605469 363.234375 26.808594 C 363.625 26.808594 364.019531 26.808594 364.425781 26.808594 C 364.425781 27.003906 364.425781 27.203125 364.425781 27.402344 C 365.015625 27.402344 365.605469 27.402344 366.210938 27.402344 C 366.210938 27.601562 366.210938 27.796875 366.210938 28 C 407.671875 28 449.136719 28 491.855469 28 C 491.855469 28.195312 491.855469 28.394531 491.855469 28.597656 C 492.246094 28.597656 492.640625 28.597656 493.046875 28.597656 C 493.046875 28.792969 493.046875 28.988281 493.046875 29.191406 C 493.4375 29.191406 493.832031 29.191406 494.234375 29.191406 C 494.234375 29.386719 494.234375 29.585938 494.234375 29.789062 C 494.433594 29.789062 494.628906 29.789062 494.832031 29.789062 C 494.832031 29.984375 494.832031 30.179688 494.832031 30.382812 C 495.027344 30.382812 495.226562 30.382812 495.425781 30.382812 C 495.425781 30.578125 495.425781 30.777344 495.425781 30.980469 C 495.625 30.980469 495.820312 30.980469 496.023438 30.980469 C 496.023438 31.175781 496.023438 31.371094 496.023438 31.574219 C 496.21875 31.574219 496.414062 31.574219 496.617188 31.574219 C 496.617188 31.769531 496.617188 31.96875 496.617188 32.171875 C 496.816406 32.171875 497.011719 32.171875 497.214844 32.171875 C 497.214844 32.5625 497.214844 32.957031 497.214844 33.363281 C 497.410156 33.363281 497.605469 33.363281 497.808594 33.363281 C 497.808594 33.753906 497.808594 34.148438 497.808594 34.554688 C 498.003906 34.554688 498.203125 34.554688 498.40625 34.554688 C 498.40625 35.144531 498.40625 35.734375 498.40625 36.339844 C 498.601562 36.339844 498.796875 36.339844 499 36.339844 C 499 95.515625 499 154.691406 499 215.660156 C 498.804688 215.660156 498.605469 215.660156 498.40625 215.660156 C 498.40625 216.25 498.40625 216.839844 498.40625 217.445312 C 498.207031 217.445312 498.011719 217.445312 497.808594 217.445312 C 497.808594 218.035156 497.808594 218.625 497.808594 219.234375 C 497.613281 219.234375 497.417969 219.234375 497.214844 219.234375 C 497.214844 219.429688 497.214844 219.628906 497.214844 219.828125 C 497.015625 219.828125 496.820312 219.828125 496.617188 219.828125 C 496.617188 220.027344 496.617188 220.222656 496.617188 220.425781 C 496.421875 220.425781 496.226562 220.425781 496.023438 220.425781 C 496.023438 220.621094 496.023438 220.820312 496.023438 221.019531 C 495.824219 221.019531 495.628906 221.019531 495.425781 221.019531 C 495.425781 221.21875 495.425781 221.414062 495.425781 221.617188 C 495.230469 221.617188 495.035156 221.617188 494.832031 221.617188 C 494.832031 221.8125 494.832031 222.011719 494.832031 222.210938 C 494.636719 222.210938 494.4375 222.210938 494.234375 222.210938 C 494.234375 222.410156 494.234375 222.605469 494.234375 222.808594 C 493.84375 222.808594 493.449219 222.808594 493.046875 222.808594 C 493.046875 223.003906 493.046875 223.203125 493.046875 223.402344 C 492.652344 223.402344 492.257812 223.402344 491.855469 223.402344 C 491.855469 223.601562 491.855469 223.796875 491.855469 224 C 413.253906 224 334.652344 224 253.667969 224 C 253.667969 223.804688 253.667969 223.605469 253.667969 223.402344 C 253.273438 223.402344 252.882812 223.402344 252.476562 223.402344 C 252.476562 223.207031 252.476562 223.011719 252.476562 222.808594 C 252.085938 222.808594 251.691406 222.808594 251.285156 222.808594 C 251.285156 222.613281 251.285156 222.414062 251.285156 222.210938 C 251.089844 222.210938 250.894531 222.210938 250.691406 222.210938 C 250.691406 222.015625 250.691406 221.820312 250.691406 221.617188 C 250.496094 221.617188 250.296875 221.617188 250.09375 221.617188 C 250.09375 221.421875 250.09375 221.222656 250.09375 221.019531 C 249.898438 221.019531 249.703125 221.019531 249.5 221.019531 C 249.5 220.824219 249.5 220.628906 249.5 220.425781 C 249.304688 220.425781 249.105469 220.425781 248.90625 220.425781 C 248.90625 220.230469 248.90625 220.03125 248.90625 219.828125 C 248.707031 219.828125 248.511719 219.828125 248.308594 219.828125 C 248.308594 219.632812 248.308594 219.4375 248.308594 219.234375 C 248.113281 219.234375 247.917969 219.234375 247.714844 219.234375 C 247.714844 218.839844 247.714844 218.449219 247.714844 218.042969 C 247.515625 218.042969 247.320312 218.042969 247.117188 218.042969 C 247.117188 217.453125 247.117188 216.863281 247.117188 216.253906 C 246.921875 216.253906 246.726562 216.253906 246.523438 216.253906 C 246.523438 205.246094 246.523438 194.238281 246.523438 182.894531 C 246.324219 182.894531 246.128906 182.894531 245.925781 182.894531 C 245.925781 182.304688 245.925781 181.714844 245.925781 181.105469 C 245.730469 181.105469 245.535156 181.105469 245.332031 181.105469 C 245.332031 180.714844 245.332031 180.320312 245.332031 179.914062 C 245.136719 179.914062 244.9375 179.914062 244.734375 179.914062 C 244.734375 179.71875 244.734375 179.523438 244.734375 179.320312 C 244.539062 179.320312 244.34375 179.320312 244.140625 179.320312 C 244.140625 179.121094 244.140625 178.925781 244.140625 178.722656 C 243.945312 178.722656 243.746094 178.722656 243.546875 178.722656 C 243.546875 178.527344 243.546875 178.332031 243.546875 178.128906 C 243.347656 178.128906 243.152344 178.128906 242.949219 178.128906 C 242.949219 177.929688 242.949219 177.734375 242.949219 177.53125 C 242.753906 177.53125 242.558594 177.53125 242.355469 177.53125 C 242.355469 177.335938 242.355469 177.140625 242.355469 176.9375 C 242.15625 176.9375 241.960938 176.9375 241.757812 176.9375 C 241.757812 176.738281 241.757812 176.542969 241.757812 176.339844 C 241.5625 176.339844 241.367188 176.339844 241.164062 176.339844 C 241.164062 176.144531 241.164062 175.945312 241.164062 175.746094 C 240.96875 175.746094 240.769531 175.746094 240.566406 175.746094 C 240.566406 175.546875 240.566406 175.351562 240.566406 175.148438 C 240.175781 175.148438 239.78125 175.148438 239.378906 175.148438 C 239.378906 174.953125 239.378906 174.753906 239.378906 174.554688 C 238.984375 174.554688 238.589844 174.554688 238.1875 174.554688 C 238.1875 174.355469 238.1875 174.160156 238.1875 173.957031 C 162.140625 173.957031 86.09375 173.957031 7.742188 173.957031 C 7.742188 173.761719 7.742188 173.5625 7.742188 173.363281 C 7.347656 173.363281 6.953125 173.363281 6.550781 173.363281 C 6.550781 173.164062 6.550781 172.96875 6.550781 172.765625 C 6.15625 172.765625 5.765625 172.765625 5.359375 172.765625 C 5.359375 172.570312 5.359375 172.371094 5.359375 172.171875 C 4.964844 172.171875 4.574219 172.171875 4.167969 172.171875 C 4.167969 171.972656 4.167969 171.777344 4.167969 171.574219 C 3.972656 171.574219 3.773438 171.574219 3.574219 171.574219 C 3.574219 171.378906 3.574219 171.179688 3.574219 170.980469 C 3.375 170.980469 3.179688 170.980469 2.976562 170.980469 C 2.976562 170.78125 2.976562 170.585938 2.976562 170.382812 C 2.78125 170.382812 2.585938 170.382812 2.382812 170.382812 C 2.382812 170.1875 2.382812 169.988281 2.382812 169.789062 C 2.183594 169.789062 1.988281 169.789062 1.785156 169.789062 C 1.785156 169.589844 1.785156 169.394531 1.785156 169.191406 C 1.589844 169.191406 1.394531 169.191406 1.191406 169.191406 C 1.191406 168.796875 1.191406 168.40625 1.191406 168 C 0.996094 168 0.796875 168 0.59375 168 C 0.59375 167.410156 0.59375 166.820312 0.59375 166.210938 C 0.398438 166.210938 0.203125 166.210938 0 166.210938 C 0 113.722656 0 61.230469 0 7.148438 C 0.195312 7.148438 0.394531 7.148438 0.59375 7.148438 C 0.59375 6.753906 0.59375 6.363281 0.59375 5.957031 C 0.792969 5.957031 0.988281 5.957031 1.191406 5.957031 C 1.191406 5.5625 1.191406 5.171875 1.191406 4.765625 C 1.386719 4.765625 1.582031 4.765625 1.785156 4.765625 C 1.785156 4.371094 1.785156 3.980469 1.785156 3.574219 C 1.984375 3.574219 2.179688 3.574219 2.382812 3.574219 C 2.382812 3.378906 2.382812 3.179688 2.382812 2.980469 C 2.578125 2.980469 2.773438 2.980469 2.976562 2.980469 C 2.976562 2.78125 2.976562 2.585938 2.976562 2.382812 C 3.175781 2.382812 3.371094 2.382812 3.574219 2.382812 C 3.574219 2.1875 3.574219 1.988281 3.574219 1.789062 C 3.769531 1.789062 3.964844 1.789062 4.167969 1.789062 C 4.167969 1.589844 4.167969 1.394531 4.167969 1.191406 C 4.5625 1.191406 4.953125 1.191406 5.359375 1.191406 C 5.359375 0.996094 5.359375 0.796875 5.359375 0.597656 C 5.949219 0.597656 6.539062 0.597656 7.144531 0.597656 C 7.144531 0.398438 7.144531 0.203125 7.144531 0 Z M 7.144531 0 "/>
</g>
</svg>
